<?xml version="1.0" encoding="utf-8"?>
<!-- Generator: Adobe Illustrator 19.0.0, SVG Export Plug-In . SVG Version: 6.00 Build 0)  -->
<svg version="1.1" id="Слой_1" xmlns="http://www.w3.org/2000/svg" xmlns:xlink="http://www.w3.org/1999/xlink" x="0px" y="0px"
	 width="440.2px" height="141.7px" viewBox="-542.6 227.4 440.2 141.7" style="enable-background:new -542.6 227.4 440.2 141.7;"
	 xml:space="preserve">
<style type="text/css">
	.st0{fill:#CBC27F;}
	.st1{fill:#FFFFFF;}
</style>
<g>
	<path class="st0" d="M-405.6,294.9l-52-52c-1-1-2.3-1.6-3.8-1.6c-1.4,0-2.8,0.5-3.8,1.6l-30.8,30.8c-2.1,2.1-2.1,5.4,0,7.5
		l35.5,35.5l6.1-6.1l0.9,18.8l-18.8-0.9l6.1-6.1l-35.5-35.5c-2.5-2.5-3.9-5.9-3.9-9.5s1.4-7,3.9-9.5l30.8-30.8
		c2.5-2.5,5.9-3.9,9.5-3.9s7,1.4,9.5,3.9l52,51.9c2.5,2.5,3.9,5.9,3.9,9.5c0,3.6-1.4,7-3.9,9.5l-12.8,12.8l0.3-1
		c0.8-3.1,0.4-6.4-1.1-9.2l-0.1-0.2l8.1-8.1C-403.5,300.3-403.5,296.9-405.6,294.9z"/>
	<path class="st0" d="M-522,288.4l12.8-12.8l-0.3,1.1c-0.8,3.1-0.4,6.4,1.1,9.2l0.1,0.2l-8.1,8.1c-1,1-1.6,2.3-1.6,3.8
		c0,1.4,0.5,2.8,1.6,3.8l52,52c1,1,2.3,1.5,3.8,1.5c1.4,0,2.8-0.6,3.8-1.5l30.8-30.8c1-1,1.6-2.3,1.6-3.8c0-1.4-0.6-2.8-1.6-3.8
		l-35.5-35.5l-6.1,6.1l-0.9-18.8l18.8,0.9l-6.1,6.1l35.5,35.5c5.2,5.2,5.2,13.7,0,19l-30.8,30.8c-2.5,2.5-5.9,3.9-9.5,3.9
		c-3.6,0-7-1.4-9.5-3.9l-52-52C-527.3,302.2-527.3,293.7-522,288.4z"/>
</g>
<path class="st1" d="M-366.4,313.2c2.2,0,3.8-0.3,4.9-0.8c1-0.5,1.5-1.4,1.5-2.7c0-1.2-0.5-2.2-1.6-3c-1.1-0.8-2.9-1.6-5.4-2.6
	c-1.5-0.6-2.9-1.1-4.2-1.8c-1.3-0.6-2.4-1.4-3.3-2.2c-0.9-0.8-1.7-1.8-2.2-3c-0.5-1.2-0.8-2.6-0.8-4.3c0-3.3,1.2-6,3.7-7.9
	c2.5-1.9,5.8-2.9,10-2.9c2.1,0,4.2,0.2,6.1,0.6c1.9,0.4,3.4,0.8,4.4,1.1l-1.5,6.8c-0.9-0.4-2.1-0.8-3.5-1.1c-1.4-0.3-3.1-0.5-5-0.5
	c-1.7,0-3.1,0.3-4.2,0.9c-1.1,0.6-1.6,1.5-1.6,2.7c0,0.6,0.1,1.1,0.3,1.6c0.2,0.5,0.6,0.9,1.1,1.3c0.5,0.4,1.2,0.8,2,1.2
	c0.8,0.4,1.9,0.8,3.1,1.2c2,0.7,3.7,1.5,5.1,2.2c1.4,0.7,2.5,1.5,3.4,2.4c0.9,0.9,1.6,1.9,2,3.1c0.4,1.2,0.6,2.5,0.6,4.2
	c0,3.5-1.3,6.1-3.9,7.9c-2.6,1.8-6.2,2.7-11,2.7c-3.2,0-5.8-0.3-7.7-0.8c-1.9-0.5-3.3-1-4.1-1.3l1.5-7c1.2,0.5,2.7,1,4.5,1.5
	C-370.6,313-368.6,313.2-366.4,313.2z"/>
<path class="st1" d="M-323,300.2c0-3.8-0.5-6.5-1.4-8.2c-0.9-1.7-2.7-2.5-5.3-2.5c-0.9,0-1.9,0.1-3.1,0.2s-1.9,0.3-2.5,0.3v29.3
	h-8.4v-35.1c1.6-0.5,3.7-0.9,6.4-1.3c2.6-0.4,5.4-0.6,8.3-0.6c2.5,0,4.5,0.3,6.1,1c1.6,0.6,2.9,1.5,4,2.6c0.5-0.4,1.2-0.8,1.9-1.2
	c0.8-0.4,1.7-0.8,2.6-1.1c1-0.3,2-0.6,3.1-0.9c1.1-0.2,2.2-0.3,3.3-0.3c2.8,0,5.1,0.4,7,1.2c1.8,0.8,3.3,1.9,4.3,3.4
	c1,1.5,1.8,3.2,2.2,5.3c0.4,2.1,0.6,4.3,0.6,6.8v20.4h-8.4v-19.1c0-3.8-0.5-6.5-1.4-8.2c-0.9-1.7-2.7-2.5-5.3-2.5
	c-1.3,0-2.6,0.2-3.8,0.7c-1.2,0.4-2.1,0.9-2.7,1.3c0.4,1.2,0.6,2.4,0.8,3.7s0.2,2.7,0.2,4.2v20.1h-8.4V300.2z"/>
<path class="st1" d="M-271.6,282.1c2.8,0,5.1,0.3,7,1c1.9,0.7,3.4,1.7,4.5,2.9c1.1,1.2,1.9,2.8,2.4,4.5c0.5,1.8,0.7,3.7,0.7,5.9v22
	c-1.3,0.3-3.3,0.6-5.9,1c-2.6,0.4-5.6,0.6-8.9,0.6c-2.2,0-4.2-0.2-6-0.6c-1.8-0.4-3.3-1.1-4.6-2c-1.3-0.9-2.3-2.1-3-3.6
	c-0.7-1.5-1.1-3.3-1.1-5.5c0-2.1,0.4-3.8,1.2-5.3c0.8-1.4,1.9-2.6,3.3-3.5c1.4-0.9,3-1.5,4.8-1.9c1.8-0.4,3.7-0.6,5.7-0.6
	c0.9,0,1.9,0.1,2.9,0.2c1,0.1,2.1,0.3,3.3,0.6v-1.4c0-1-0.1-1.9-0.3-2.8c-0.2-0.9-0.6-1.7-1.2-2.3c-0.6-0.7-1.3-1.2-2.3-1.6
	c-0.9-0.4-2.1-0.6-3.6-0.6c-1.9,0-3.7,0.1-5.3,0.4c-1.6,0.3-2.9,0.6-4,1l-1-6.8c1.1-0.4,2.6-0.7,4.6-1.1
	C-276.1,282.2-273.9,282.1-271.6,282.1z M-270.9,313.4c2.6,0,4.6-0.1,5.9-0.4v-9.3c-0.5-0.1-1.1-0.3-2-0.4c-0.9-0.1-1.9-0.2-2.9-0.2
	c-0.9,0-1.9,0.1-2.8,0.2c-0.9,0.1-1.8,0.4-2.6,0.8c-0.8,0.4-1.4,0.9-1.8,1.6c-0.5,0.7-0.7,1.5-0.7,2.5c0,2,0.6,3.4,1.9,4.1
	C-274.7,313-273,313.4-270.9,313.4z"/>
<path class="st1" d="M-228.4,290.5c-0.7-0.2-1.7-0.5-2.9-0.7c-1.2-0.3-2.7-0.4-4.3-0.4c-0.9,0-1.9,0.1-3,0.3s-1.8,0.3-2.2,0.5v29.1
	h-8.4v-34.6c1.6-0.6,3.6-1.2,6.1-1.7c2.4-0.5,5.1-0.8,8.1-0.8c0.6,0,1.2,0,1.9,0.1c0.7,0.1,1.5,0.2,2.2,0.3c0.7,0.1,1.5,0.3,2.2,0.4
	c0.7,0.2,1.2,0.3,1.7,0.5L-228.4,290.5z"/>
<path class="st1" d="M-219,273.4l8.4-1.4v11h12.9v7h-12.9v14.8c0,2.9,0.5,5,1.4,6.3s2.5,1.9,4.7,1.9c1.5,0,2.9-0.2,4.1-0.5
	c1.2-0.3,2.1-0.6,2.8-0.9l1.4,6.7c-1,0.4-2.2,0.8-3.8,1.3c-1.6,0.4-3.4,0.7-5.6,0.7c-2.6,0-4.8-0.3-6.5-1c-1.7-0.7-3.1-1.7-4.1-3
	c-1-1.3-1.7-2.9-2.2-4.8c-0.4-1.9-0.6-4-0.6-6.4V273.4z"/>
<path class="st1" d="M-191.1,301.3c0-3.2,0.5-6,1.4-8.4c0.9-2.4,2.2-4.4,3.8-6c1.6-1.6,3.4-2.8,5.4-3.6c2-0.8,4.1-1.2,6.3-1.2
	c5,0,8.9,1.6,11.7,4.7c2.8,3.1,4.2,7.7,4.2,13.9c0,0.5,0,1,0,1.6c0,0.6-0.1,1.1-0.1,1.6h-24c0.2,2.9,1.3,5.2,3.1,6.8
	c1.8,1.6,4.5,2.4,8,2.4c2,0,3.9-0.2,5.6-0.6c1.7-0.4,3-0.8,4-1.2l1.1,6.9c-0.5,0.2-1.1,0.5-1.9,0.7c-0.8,0.3-1.7,0.5-2.8,0.7
	s-2.2,0.4-3.4,0.5s-2.4,0.2-3.7,0.2c-3.2,0-6-0.5-8.3-1.4c-2.4-0.9-4.3-2.3-5.8-4c-1.5-1.7-2.7-3.7-3.4-6
	C-190.7,306.5-191.1,304-191.1,301.3z M-166.7,297.5c0-1.2-0.2-2.3-0.5-3.3c-0.3-1-0.8-1.9-1.4-2.7c-0.6-0.8-1.4-1.4-2.3-1.8
	c-0.9-0.4-2-0.7-3.2-0.7c-1.3,0-2.4,0.2-3.4,0.7c-1,0.5-1.8,1.1-2.5,1.9c-0.7,0.8-1.2,1.7-1.6,2.7c-0.4,1-0.6,2.1-0.8,3.1H-166.7z"
	/>
<path class="st1" d="M-136.4,294.1l7.7-11.1h8.8l-12.2,17.4c2.5,3.2,5,6.4,7.3,9.7c2.3,3.3,4.3,6.3,5.8,9.2h-9.2
	c-0.4-0.9-1-1.8-1.6-2.8c-0.7-1-1.4-2.1-2.1-3.2c-0.8-1.1-1.5-2.2-2.4-3.3c-0.8-1.1-1.6-2.1-2.4-3.1c-1.6,1.9-3.2,4-4.8,6.3
	c-1.6,2.3-2.8,4.3-3.9,6.1h-8.6c0.7-1.4,1.5-2.9,2.5-4.4c1-1.5,2.1-3.1,3.2-4.7c1.1-1.6,2.3-3.2,3.5-4.8c1.2-1.6,2.4-3.1,3.6-4.6
	l-12.3-17.8h9.2L-136.4,294.1z"/>
</svg>
